<svg xmlns="http://www.w3.org/2000/svg" viewBox="0 0 220.55 61.6"><defs><style>.cls-1{fill:#fff;}</style></defs><g id="Layer_2" data-name="Layer 2"><g id="Layer_1-2" data-name="Layer 1"><path class="cls-1" d="M1.38,20.64c1-7.74,5-10.44,14.28-10.44,8.94,0,14.1,2.1,14.1,9V36.42c0,2.28,0,3.66,2,3.66a8.54,8.54,0,0,0,2.7-.48V42a10.24,10.24,0,0,1-3.36.48c-3.78,0-3.78-2.64-3.78-6.72h-.12c-3.42,6.3-10.62,7.08-14.64,7.08C10,42.84,0,42.84,0,33.48c0-6.3,5.34-8.46,11.58-8.82l10.74-.72c3.18-.24,4.68-.6,4.68-4.38,0-4.14-2.34-7-11.4-7-8.1,0-10.62,2.52-11.46,8ZM27,24.72h-.12c-.66.72-2.28,1.44-4.92,1.62l-10.38.72c-5.16.36-8.82,1.8-8.82,6.42,0,6.24,6.3,7,10,7C18.9,40.44,27,37.68,27,30.36Z"/><path class="cls-1" d="M37,20.64c1-7.74,5-10.44,14.28-10.44,8.94,0,14.1,2.1,14.1,9V36.42c0,2.28,0,3.66,2,3.66a8.54,8.54,0,0,0,2.7-.48V42a10.24,10.24,0,0,1-3.36.48c-3.78,0-3.78-2.64-3.78-6.72h-.12c-3.42,6.3-10.62,7.08-14.64,7.08-2.64,0-12.6,0-12.6-9.36,0-6.3,5.34-8.46,11.58-8.82l10.74-.72c3.18-.24,4.68-.6,4.68-4.38,0-4.14-2.34-7-11.4-7-8.1,0-10.62,2.52-11.46,8Zm25.62,4.08h-.12c-.66.72-2.28,1.44-4.92,1.62l-10.38.72c-5.16.36-8.82,1.8-8.82,6.42,0,6.24,6.3,7,10,7,6.12,0,14.22-2.76,14.22-10.08Z"/><path class="cls-1" d="M73,0h2.76V28.44l21.9-16.32h4.08L86.16,23.7l17,19.14H99.36L84,25.44l-8.28,6.12V42.84H73Z"/><path class="cls-1" d="M106.32,12.12h2.76v7.26h.12c2-5.4,6.72-8.22,12.72-8.22a7.54,7.54,0,0,1,2.28.36v2.76a9,9,0,0,0-3.18-.36c-8,0-11.94,6.06-11.94,12.3V42.84h-2.76Z"/><path class="cls-1" d="M157.38,41.88h-2.76V35.76h-.12c-1.92,3.66-5.94,7.08-13,7.08-14.1,0-14.1-9-14.1-12.72v-19h2.76V30c0,6.24,2.34,10.44,11.4,10.44s13-5.64,13-11.34V11.16h2.76Z"/><path class="cls-1" d="M167.1,1.14h2.76V11.52H179v2.4h-9.12V36.06c0,3.78,2.16,4.38,5.58,4.38,1.26,0,2.58-.24,3.84-.36v2.4a24.24,24.24,0,0,1-4.68.36c-6.42,0-7.5-2.4-7.5-8.28V13.92h-7v-2.4h7Z"/><path class="cls-1" d="M183.24,0H186V6.36h-2.76Zm0,12.12H186V42.84h-2.76Z"/><path class="cls-1" d="M216.59,20.16c-.42-5.1-3.66-7.56-11.63-7.56-7.56,0-10,2.94-10,6.12,0,3.36,2.52,4.74,6.18,5.22l9.78,1.32c5.75.78,9.65,2.88,9.65,8.4,0,8.34-9.48,9.18-14.7,9.18-8.45,0-14.57-2.88-15-10.56h2.76c.36,3.18,1,8.16,12.95,8.16,8.1,0,11.22-2.4,11.22-6.78,0-3.54-2.57-5.1-6.18-5.58l-10.8-1.44c-3.77-.48-8.63-2.28-8.63-7.74,0-3.48,2.46-8.7,12.89-8.7,11.41,0,13.92,5.16,14.28,10Z"/><path class="cls-1" d="M0,51.55H1.7v9.94H0Z"/><path class="cls-1" d="M5,57.4v4.09H3.45V53.93H5v1.38a2.87,2.87,0,0,1,2.52-1.5,2.8,2.8,0,0,1,2.07.79,3.06,3.06,0,0,1,.79,2.26v4.63H8.82V57.34c0-1.39-.58-2.09-1.73-2.09A2,2,0,0,0,5,57.4Z"/><path class="cls-1" d="M17.31,59.23A2.13,2.13,0,0,1,16.53,61a3,3,0,0,1-2,.64,5.46,5.46,0,0,1-3.28-1.13L12,59.23a4.24,4.24,0,0,0,2.56,1,1.36,1.36,0,0,0,.85-.25.78.78,0,0,0,.31-.63c0-.38-.5-.73-1.5-1l-.17-.06c-1.58-.42-2.36-1.13-2.36-2.13a2,2,0,0,1,.81-1.68,3.42,3.42,0,0,1,2.13-.64,4.44,4.44,0,0,1,2.47.77l-.6,1.18a3.51,3.51,0,0,0-2-.61,1.77,1.77,0,0,0-.92.21.66.66,0,0,0-.36.62.57.57,0,0,0,.37.54,4.27,4.27,0,0,0,.72.24c.31.07.58.15.82.22l.69.26a4.78,4.78,0,0,1,.71.4A1.76,1.76,0,0,1,17.31,59.23Z"/><path class="cls-1" d="M20.37,55.21v3.84a1.25,1.25,0,0,0,.28.86,1,1,0,0,0,.8.32,1.36,1.36,0,0,0,1-.5l.65,1.12a2.71,2.71,0,0,1-1.85.75,2.39,2.39,0,0,1-1.74-.7,2.53,2.53,0,0,1-.71-1.9V55.21h-1V53.93h1V51.55h1.59v2.38h2v1.28Z"/><path class="cls-1" d="M23.74,52.42a1,1,0,0,1,0-1.42,1,1,0,0,1,.71-.3,1,1,0,0,1,0,2A1,1,0,0,1,23.74,52.42Zm1.49,9.07H23.64V53.93h1.59Z"/><path class="cls-1" d="M28.78,55.21v3.84a1.26,1.26,0,0,0,.29.86,1,1,0,0,0,.79.32,1.38,1.38,0,0,0,1-.5l.65,1.12a2.73,2.73,0,0,1-1.86.75,2.39,2.39,0,0,1-1.73-.7,2.53,2.53,0,0,1-.72-1.9V55.21h-1V53.93h1V51.55h1.59v2.38h2v1.28Z"/><path class="cls-1" d="M37.34,58V53.93h1.6v7.56h-1.6V60.11a2.8,2.8,0,0,1-1.06,1.1,2.84,2.84,0,0,1-1.45.39,2.76,2.76,0,0,1-2.07-.78A3,3,0,0,1,32,58.56V53.93h1.59v4.15c0,1.39.58,2.09,1.74,2.09a2.05,2.05,0,0,0,1.43-.55A2,2,0,0,0,37.34,58Z"/><path class="cls-1" d="M42.49,55.21v3.84a1.25,1.25,0,0,0,.28.86,1,1,0,0,0,.8.32,1.36,1.36,0,0,0,1-.5l.66,1.12a2.73,2.73,0,0,1-1.86.75,2.35,2.35,0,0,1-1.73-.7A2.53,2.53,0,0,1,40.9,59V55.21h-1V53.93h1V51.55h1.59v2.38h2v1.28Z"/><path class="cls-1" d="M52.8,58.41H46.87a1.74,1.74,0,0,0,.75,1.33,3,3,0,0,0,3.76-.39l.91,1A4.26,4.26,0,0,1,49.1,61.6a3.82,3.82,0,0,1-2.71-1.05,3.77,3.77,0,0,1-1.11-2.85,3.68,3.68,0,0,1,1.13-2.83,4,4,0,0,1,5.31-.12,3.2,3.2,0,0,1,1.08,2.56Zm-5.93-1.25H51.2a1.82,1.82,0,0,0-.59-1.47,2.19,2.19,0,0,0-1.47-.51,2.57,2.57,0,0,0-1.58.53A1.74,1.74,0,0,0,46.87,57.16Z"/><path class="cls-1" d="M63.35,60.48a4.17,4.17,0,0,1-5.69,0,3.94,3.94,0,0,1,0-5.54,4.15,4.15,0,0,1,5.69,0,4,4,0,0,1,0,5.54Zm-4.56-1a2.48,2.48,0,0,0,3.43,0,2.7,2.7,0,0,0,0-3.56,2.48,2.48,0,0,0-3.43,0,2.67,2.67,0,0,0,0,3.56Z"/><path class="cls-1" d="M67.43,53.3v.63h2v1.28h-2v6.28h-1.6V55.21h-1V53.93h1v-.58a2.53,2.53,0,0,1,.72-1.9,2.4,2.4,0,0,1,1.74-.71,2.69,2.69,0,0,1,1.85.76l-.65,1.12a1.36,1.36,0,0,0-1-.5,1,1,0,0,0-.8.32A1.25,1.25,0,0,0,67.43,53.3Z"/><path class="cls-1" d="M80.36,52.42a3.26,3.26,0,0,1,1,2.67,3.16,3.16,0,0,1-1.06,2.65,5.18,5.18,0,0,1-3.25.84H75.33v2.91H73.65V51.55h3.41A5.09,5.09,0,0,1,80.36,52.42Zm-1.18,4.1a2.2,2.2,0,0,0,.5-1.56A1.62,1.62,0,0,0,79,53.5a3.71,3.71,0,0,0-2-.43H75.33v4h2A2.58,2.58,0,0,0,79.18,56.52Z"/><path class="cls-1" d="M86.41,55.42a2.12,2.12,0,0,0-1.78.77,3.26,3.26,0,0,0-.6,2.06v3.24H82.44V53.93H84v1.52a3.47,3.47,0,0,1,1-1.17,2.53,2.53,0,0,1,1.4-.47v1.61Z"/><path class="cls-1" d="M93.56,60.48a4.17,4.17,0,0,1-5.69,0,3.94,3.94,0,0,1,0-5.54,4.15,4.15,0,0,1,5.69,0,4,4,0,0,1,0,5.54Zm-4.56-1a2.48,2.48,0,0,0,3.43,0,2.7,2.7,0,0,0,0-3.56,2.48,2.48,0,0,0-3.43,0,2.7,2.7,0,0,0,0,3.56Z"/><path class="cls-1" d="M97.64,53.3v.63h2v1.28h-2v6.28H96.05V55.21h-1V53.93h1v-.58a2.53,2.53,0,0,1,.71-1.9,2.4,2.4,0,0,1,1.74-.71,2.67,2.67,0,0,1,1.85.76l-.65,1.12a1.36,1.36,0,0,0-1-.5,1,1,0,0,0-.8.32A1.25,1.25,0,0,0,97.64,53.3Z"/><path class="cls-1" d="M107.49,58.41h-5.93a1.74,1.74,0,0,0,.75,1.33,2.71,2.71,0,0,0,1.6.5,2.66,2.66,0,0,0,2.16-.89l.91,1a4.26,4.26,0,0,1-3.19,1.26,3.82,3.82,0,0,1-2.71-1.05A3.77,3.77,0,0,1,100,57.7a3.65,3.65,0,0,1,1.14-2.83,4,4,0,0,1,5.3-.12,3.2,3.2,0,0,1,1.08,2.56Zm-5.93-1.25h4.34a1.82,1.82,0,0,0-.6-1.47,2.19,2.19,0,0,0-1.47-.51,2.54,2.54,0,0,0-1.57.53A1.72,1.72,0,0,0,101.56,57.16Z"/><path class="cls-1" d="M113.92,59.23a2.11,2.11,0,0,1-.79,1.73,3,3,0,0,1-2,.64,5.29,5.29,0,0,1-1.71-.29,5,5,0,0,1-1.57-.84l.76-1.24a4.27,4.27,0,0,0,2.56,1A1.4,1.4,0,0,0,112,60a.81.81,0,0,0,.31-.63c0-.38-.5-.73-1.51-1l-.17-.06c-1.57-.42-2.36-1.13-2.36-2.13a2,2,0,0,1,.82-1.68,3.37,3.37,0,0,1,2.12-.64,4.45,4.45,0,0,1,2.48.77l-.6,1.18a3.54,3.54,0,0,0-2-.61,1.83,1.83,0,0,0-.93.21.65.65,0,0,0-.35.62.57.57,0,0,0,.37.54,4.44,4.44,0,0,0,.71.24c.31.07.58.15.82.22s.47.17.69.26a5.4,5.4,0,0,1,.72.4A1.78,1.78,0,0,1,113.92,59.23Z"/><path class="cls-1" d="M120.4,59.23a2.13,2.13,0,0,1-.78,1.73,3,3,0,0,1-2,.64,5.29,5.29,0,0,1-1.71-.29,5.14,5.14,0,0,1-1.57-.84l.77-1.24a4.24,4.24,0,0,0,2.56,1,1.36,1.36,0,0,0,.85-.25.78.78,0,0,0,.31-.63c0-.38-.5-.73-1.51-1l-.17-.06c-1.57-.42-2.36-1.13-2.36-2.13a2,2,0,0,1,.82-1.68,3.4,3.4,0,0,1,2.13-.64,4.44,4.44,0,0,1,2.47.77l-.6,1.18a3.51,3.51,0,0,0-2-.61,1.83,1.83,0,0,0-.93.21.67.67,0,0,0-.35.62.57.57,0,0,0,.37.54,4.27,4.27,0,0,0,.72.24c.3.07.58.15.81.22s.47.17.69.26a4.39,4.39,0,0,1,.72.4A1.78,1.78,0,0,1,120.4,59.23Z"/><path class="cls-1" d="M121.59,52.42A1,1,0,1,1,123,51a1,1,0,0,1,0,1.42,1,1,0,0,1-1.43,0Zm1.5,9.07h-1.6V53.93h1.6Z"/><path class="cls-1" d="M131,60.48a4.17,4.17,0,0,1-5.69,0,3.94,3.94,0,0,1,0-5.54,4.15,4.15,0,0,1,5.69,0,4,4,0,0,1,0,5.54Zm-4.56-1a2.29,2.29,0,0,0,1.71.69,2.33,2.33,0,0,0,1.72-.69,2.7,2.7,0,0,0,0-3.56,2.33,2.33,0,0,0-1.72-.69,2.29,2.29,0,0,0-1.71.69,2.67,2.67,0,0,0,0,3.56Z"/><path class="cls-1" d="M134.83,57.4v4.09h-1.59V53.93h1.59v1.38a2.87,2.87,0,0,1,2.52-1.5,2.76,2.76,0,0,1,2.06.79,3,3,0,0,1,.79,2.26v4.63h-1.59V57.34c0-1.39-.58-2.09-1.73-2.09a2.08,2.08,0,0,0-1.44.55A2,2,0,0,0,134.83,57.4Z"/><path class="cls-1" d="M147.84,61.49h-1.45v-1a3.12,3.12,0,0,1-2.52,1.12,2.88,2.88,0,0,1-2-.66,2.24,2.24,0,0,1-.78-1.79,1.89,1.89,0,0,1,.83-1.67,3.94,3.94,0,0,1,2.23-.55h2.06v-.29q0-1.5-1.68-1.5a3.94,3.94,0,0,0-2.19.76l-.71-1a4.9,4.9,0,0,1,3.13-1.1,3.38,3.38,0,0,1,2.18.68,2.54,2.54,0,0,1,.85,2.12Zm-1.59-2.81V58h-1.8c-1.14,0-1.72.36-1.72,1.08a1,1,0,0,0,.43.84,2,2,0,0,0,1.19.29,2.2,2.2,0,0,0,1.33-.42A1.37,1.37,0,0,0,146.25,58.68Z"/><path class="cls-1" d="M150.94,61.49h-1.59V50.94h1.59Z"/><path class="cls-1" d="M162.92,51.55v1.58h-5.3v2.63h4.76v1.5h-4.76v2.65h5.47v1.58h-7.15V51.55Z"/><path class="cls-1" d="M164.88,60.52a3.84,3.84,0,0,1-1.06-2.84,3.71,3.71,0,0,1,1.09-2.81,3.65,3.65,0,0,1,2.61-1.06A2.88,2.88,0,0,1,170,55.09V50.94h1.59V61.49H170V60.35a2.94,2.94,0,0,1-2.57,1.25A3.39,3.39,0,0,1,164.88,60.52Zm.53-2.77a2.37,2.37,0,0,0,.7,1.77,2.27,2.27,0,0,0,1.63.68,2.09,2.09,0,0,0,1.59-.69,2.46,2.46,0,0,0,.66-1.77,2.6,2.6,0,0,0-.66-1.81,2.07,2.07,0,0,0-1.6-.72,2.18,2.18,0,0,0-1.64.72A2.58,2.58,0,0,0,165.41,57.75Z"/><path class="cls-1" d="M178.43,58V53.93H180v7.56h-1.6V60.11a2.8,2.8,0,0,1-1.06,1.1,2.84,2.84,0,0,1-1.45.39,2.76,2.76,0,0,1-2.07-.78,3,3,0,0,1-.79-2.26V53.93h1.59v4.15c0,1.39.58,2.09,1.74,2.09a2.05,2.05,0,0,0,1.43-.55A2,2,0,0,0,178.43,58Z"/><path class="cls-1" d="M185,61.6a3.79,3.79,0,0,1-2.71-1.07,4,4,0,0,1,.05-5.63,4.14,4.14,0,0,1,2.89-1.09A4,4,0,0,1,188.09,55l-.94,1.16a3,3,0,0,0-2-.86,2.51,2.51,0,0,0-1.73.66,2.24,2.24,0,0,0-.73,1.71,2.38,2.38,0,0,0,.73,1.77,2.43,2.43,0,0,0,1.78.72,2.79,2.79,0,0,0,2-1l.94,1A4.35,4.35,0,0,1,185,61.6Z"/><path class="cls-1" d="M195.17,61.49h-1.45v-1a3.12,3.12,0,0,1-2.52,1.12,2.92,2.92,0,0,1-2-.66,2.26,2.26,0,0,1-.77-1.79,1.88,1.88,0,0,1,.82-1.67,4,4,0,0,1,2.24-.55h2.06v-.29q0-1.5-1.68-1.5a3.94,3.94,0,0,0-2.19.76l-.71-1a4.9,4.9,0,0,1,3.13-1.1,3.38,3.38,0,0,1,2.18.68,2.57,2.57,0,0,1,.85,2.12Zm-1.6-2.81V58h-1.79c-1.14,0-1.72.36-1.72,1.08a.94.94,0,0,0,.43.84,2,2,0,0,0,1.19.29,2.2,2.2,0,0,0,1.33-.42A1.39,1.39,0,0,0,193.57,58.68Z"/><path class="cls-1" d="M198.55,55.21v3.84a1.31,1.31,0,0,0,.28.86,1,1,0,0,0,.8.32,1.36,1.36,0,0,0,1-.5l.66,1.12a2.73,2.73,0,0,1-1.86.75,2.35,2.35,0,0,1-1.73-.7A2.53,2.53,0,0,1,197,59V55.21h-1V53.93h1V51.55h1.59v2.38h2v1.28Z"/><path class="cls-1" d="M201.92,52.42a1,1,0,0,1,0-1.42,1,1,0,0,1,.71-.3,1,1,0,0,1,0,2A1,1,0,0,1,201.92,52.42Zm1.49,9.07h-1.59V53.93h1.59Z"/><path class="cls-1" d="M211.33,60.48a4.17,4.17,0,0,1-5.69,0,4,4,0,0,1,0-5.54,4.15,4.15,0,0,1,5.69,0,3.94,3.94,0,0,1,0,5.54Zm-4.56-1a2.33,2.33,0,0,0,1.72.69,2.29,2.29,0,0,0,1.71-.69,2.67,2.67,0,0,0,0-3.56,2.29,2.29,0,0,0-1.71-.69,2.33,2.33,0,0,0-1.72.69,2.7,2.7,0,0,0,0,3.56Z"/><path class="cls-1" d="M215.16,57.4v4.09h-1.6V53.93h1.6v1.38a2.8,2.8,0,0,1,1.06-1.1,2.85,2.85,0,0,1,1.45-.4,2.77,2.77,0,0,1,2.07.79,3,3,0,0,1,.79,2.26v4.63h-1.59V57.34c0-1.39-.58-2.09-1.74-2.09a2.05,2.05,0,0,0-1.43.55A2,2,0,0,0,215.16,57.4Z"/></g></g></svg>