<?xml version="1.0" encoding="utf-8"?>
<!-- Generator: Adobe Illustrator 24.2.1, SVG Export Plug-In . SVG Version: 6.00 Build 0)  -->
<svg version="1.1" id="Layer_1" xmlns="http://www.w3.org/2000/svg" xmlns:xlink="http://www.w3.org/1999/xlink" x="0px" y="0px"
	 viewBox="0 0 220.6 61.6" style="enable-background:new 0 0 220.6 61.6;" xml:space="preserve">
<style type="text/css">
	.st0{fill:#5B21B6;}
</style>
<path class="st0" d="M1.4,20.6c1-7.7,5-10.4,14.3-10.4c8.9,0,14.1,2.1,14.1,9v17.2c0,2.3,0,3.7,2,3.7c0.9,0,1.8-0.2,2.7-0.5V42
	c-1.1,0.3-2.2,0.5-3.4,0.5c-3.8,0-3.8-2.6-3.8-6.7h-0.1c-3.4,6.3-10.6,7.1-14.6,7.1C10,42.8,0,42.8,0,33.5c0-6.3,5.3-8.5,11.6-8.8
	l10.7-0.7c3.2-0.2,4.7-0.6,4.7-4.4c0-4.1-2.3-7-11.4-7c-8.1,0-10.6,2.5-11.5,8L1.4,20.6z M27,24.7h-0.1c-0.7,0.7-2.3,1.4-4.9,1.6
	l-10.4,0.7c-5.2,0.4-8.8,1.8-8.8,6.4c0,6.2,6.3,7,10,7c6.1,0,14.2-2.8,14.2-10.1V24.7z"/>
<path class="st0" d="M37,20.6c1-7.7,5-10.4,14.3-10.4c8.9,0,14.1,2.1,14.1,9v17.2c0,2.3,0,3.7,2,3.7c0.9,0,1.8-0.2,2.7-0.5V42
	c-1.1,0.3-2.2,0.5-3.4,0.5c-3.8,0-3.8-2.6-3.8-6.7h-0.1c-3.4,6.3-10.6,7.1-14.6,7.1c-2.6,0-12.6,0-12.6-9.4c0-6.3,5.3-8.5,11.6-8.8
	l10.7-0.7c3.2-0.2,4.7-0.6,4.7-4.4c0-4.1-2.3-7-11.4-7c-8.1,0-10.6,2.5-11.5,8L37,20.6z M62.6,24.7h-0.1c-0.7,0.7-2.3,1.4-4.9,1.6
	l-10.4,0.7c-5.2,0.4-8.8,1.8-8.8,6.4c0,6.2,6.3,7,10,7c6.1,0,14.2-2.8,14.2-10.1L62.6,24.7z"/>
<path class="st0" d="M73,0h2.8v28.4l21.9-16.3h4.1L86.2,23.7l17,19.1h-3.8L84,25.4l-8.3,6.1v11.3H73V0z"/>
<path class="st0" d="M106.3,12.1h2.8v7.3h0.1c2-5.4,6.7-8.2,12.7-8.2c0.8,0,1.5,0.1,2.3,0.4v2.8c-1-0.3-2.1-0.4-3.2-0.4
	c-8,0-11.9,6.1-11.9,12.3v16.6h-2.8V12.1z"/>
<path class="st0" d="M157.4,41.9h-2.8v-6.1h-0.1c-1.9,3.7-5.9,7.1-13,7.1c-14.1,0-14.1-9-14.1-12.7v-19h2.8V30
	c0,6.2,2.3,10.4,11.4,10.4s13-5.6,13-11.3V11.2h2.8L157.4,41.9z"/>
<path class="st0" d="M167.1,1.1h2.8v10.4h9.1v2.4h-9.1v22.1c0,3.8,2.2,4.4,5.6,4.4c1.3,0,2.6-0.2,3.8-0.4v2.4
	c-1.5,0.3-3.1,0.4-4.7,0.4c-6.4,0-7.5-2.4-7.5-8.3V13.9h-7v-2.4h7L167.1,1.1z"/>
<path class="st0" d="M183.2,0h2.8v6.4h-2.8V0z M183.2,12.1h2.8v30.7h-2.8V12.1z"/>
<path class="st0" d="M216.6,20.2c-0.4-5.1-3.7-7.6-11.6-7.6c-7.6,0-10,2.9-10,6.1c0,3.4,2.5,4.7,6.2,5.2l9.8,1.3
	c5.8,0.8,9.6,2.9,9.6,8.4c0,8.3-9.5,9.2-14.7,9.2c-8.4,0-14.6-2.9-15-10.6h2.8c0.4,3.2,1,8.2,12.9,8.2c8.1,0,11.2-2.4,11.2-6.8
	c0-3.5-2.6-5.1-6.2-5.6l-10.8-1.4c-3.8-0.5-8.6-2.3-8.6-7.7c0-3.5,2.5-8.7,12.9-8.7c11.4,0,13.9,5.2,14.3,10L216.6,20.2z"/>
<path class="st0" d="M0,51.5h1.7v9.9H0V51.5z"/>
<path class="st0" d="M5,57.4v4.1H3.5v-7.6H5v1.4c0.5-0.9,1.5-1.5,2.5-1.5c0.8,0,1.5,0.3,2.1,0.8c0.6,0.6,0.8,1.4,0.8,2.3v4.6H8.8
	v-4.2c0-1.4-0.6-2.1-1.7-2.1C6,55.2,5,56,5,57.2C5,57.2,5,57.3,5,57.4z"/>
<path class="st0" d="M17.3,59.2c0,0.7-0.3,1.3-0.8,1.8c-0.6,0.4-1.3,0.7-2,0.6c-1.2,0-2.3-0.4-3.3-1.1l0.7-1.3c0.7,0.6,1.6,1,2.6,1
	c0.3,0,0.6-0.1,0.9-0.3c0.2-0.1,0.3-0.4,0.3-0.6c0-0.4-0.5-0.7-1.5-1l-0.2-0.1c-1.6-0.4-2.4-1.1-2.4-2.1c0-0.7,0.3-1.3,0.8-1.7
	c0.6-0.4,1.4-0.7,2.1-0.6c0.9,0,1.7,0.3,2.5,0.8l-0.6,1.2c-0.6-0.4-1.3-0.6-2-0.6c-0.3,0-0.6,0.1-0.9,0.2c-0.2,0.1-0.4,0.4-0.4,0.6
	c0,0.2,0.1,0.5,0.4,0.5c0.2,0.1,0.5,0.2,0.7,0.2c0.3,0.1,0.6,0.2,0.8,0.2l0.7,0.3c0.2,0.1,0.5,0.2,0.7,0.4
	C17,58,17.3,58.6,17.3,59.2z"/>
<path class="st0" d="M20.4,55.2V59c0,0.3,0.1,0.6,0.3,0.9c0.2,0.2,0.5,0.3,0.8,0.3c0.4,0,0.8-0.2,1-0.5l0.6,1.1
	c-0.5,0.5-1.2,0.7-1.9,0.8c-0.7,0-1.3-0.2-1.7-0.7c-0.5-0.5-0.7-1.2-0.7-1.9v-3.8h-1v-1.3h1v-2.4h1.6v2.4h2v1.3H20.4z"/>
<path class="st0" d="M23.7,52.4c-0.4-0.4-0.4-1,0-1.4c0,0,0,0,0,0c0.2-0.2,0.4-0.3,0.7-0.3c0.6,0,1,0.4,1,1s-0.4,1-1,1
	C24.2,52.7,23.9,52.6,23.7,52.4z M25.2,61.5h-1.6v-7.6h1.6V61.5z"/>
<path class="st0" d="M28.8,55.2V59c0,0.3,0.1,0.6,0.3,0.9c0.2,0.2,0.5,0.3,0.8,0.3c0.4,0,0.8-0.2,1-0.5l0.6,1.1
	c-0.5,0.5-1.2,0.7-1.9,0.8c-0.6,0-1.3-0.2-1.7-0.7c-0.5-0.5-0.8-1.2-0.7-1.9v-3.8h-1v-1.3h1v-2.4h1.6v2.4h2v1.3H28.8z"/>
<path class="st0" d="M37.3,58v-4.1h1.6v7.6h-1.6v-1.4c-0.2,0.5-0.6,0.8-1.1,1.1c-0.4,0.3-0.9,0.4-1.5,0.4c-0.8,0-1.5-0.2-2.1-0.8
	c-0.6-0.6-0.8-1.4-0.8-2.3v-4.6h1.6v4.2c0,1.4,0.6,2.1,1.7,2.1c0.5,0,1-0.2,1.4-0.5C37.2,59.2,37.4,58.6,37.3,58z"/>
<path class="st0" d="M42.5,55.2V59c0,0.3,0.1,0.6,0.3,0.9c0.2,0.2,0.5,0.3,0.8,0.3c0.4,0,0.8-0.2,1-0.5l0.7,1.1
	c-0.5,0.5-1.2,0.7-1.9,0.8c-0.6,0-1.3-0.2-1.7-0.7c-0.5-0.5-0.8-1.2-0.7-1.9v-3.8h-1v-1.3h1v-2.4h1.6v2.4h2v1.3H42.5z"/>
<path class="st0" d="M52.8,58.4h-5.9c0,0.5,0.3,1,0.8,1.3c1.2,0.8,2.8,0.6,3.8-0.4l0.9,1c-0.8,0.8-2,1.3-3.2,1.2c-1,0-2-0.4-2.7-1
	c-0.8-0.8-1.2-1.8-1.1-2.8c0-1.1,0.4-2.1,1.1-2.8c1.5-1.4,3.8-1.4,5.3-0.1c0.7,0.6,1.1,1.6,1.1,2.6L52.8,58.4z M46.9,57.2h4.3
	c0-0.6-0.2-1.1-0.6-1.5c-0.4-0.3-0.9-0.5-1.5-0.5c-0.6,0-1.1,0.2-1.6,0.5C47.1,56.1,46.8,56.6,46.9,57.2z"/>
<path class="st0" d="M63.3,60.5c-1.6,1.5-4.1,1.5-5.7,0c-1.5-1.5-1.5-4,0-5.5c1.6-1.5,4.1-1.5,5.7,0C64.8,56.5,64.8,58.9,63.3,60.5z
	 M58.8,59.5c1,0.9,2.5,0.9,3.4,0c0.9-1,0.9-2.5,0-3.6c-1-0.9-2.5-0.9-3.4,0C57.9,56.9,57.9,58.5,58.8,59.5z"/>
<path class="st0" d="M67.4,53.3v0.6h2v1.3h-2v6.3h-1.6v-6.3h-1v-1.3h1v-0.6c0-0.7,0.2-1.4,0.7-1.9c0.5-0.5,1.1-0.7,1.7-0.7
	c0.7,0,1.4,0.3,1.8,0.8l-0.7,1.1c-0.2-0.3-0.6-0.5-1-0.5c-0.3,0-0.6,0.1-0.8,0.3C67.5,52.7,67.4,53,67.4,53.3z"/>
<path class="st0" d="M80.4,52.4c0.7,0.7,1.1,1.7,1,2.7c0.1,1-0.3,2-1.1,2.7c-1,0.6-2.1,0.9-3.3,0.8h-1.7v2.9h-1.7v-9.9h3.4
	C78.2,51.5,79.4,51.8,80.4,52.4z M79.2,56.5c0.4-0.4,0.5-1,0.5-1.6c0-0.6-0.2-1.1-0.7-1.5c-0.6-0.3-1.3-0.5-2-0.4h-1.7v4h2
	C78,57.1,78.7,56.9,79.2,56.5z"/>
<path class="st0" d="M86.4,55.4c-0.7,0-1.3,0.2-1.8,0.8c-0.4,0.6-0.6,1.3-0.6,2.1v3.2h-1.6v-7.6H84v1.5c0.2-0.5,0.6-0.9,1-1.2
	c0.4-0.3,0.9-0.5,1.4-0.5L86.4,55.4L86.4,55.4z"/>
<path class="st0" d="M93.6,60.5c-1.6,1.5-4.1,1.5-5.7,0c-1.5-1.5-1.5-4,0-5.5c1.6-1.5,4.1-1.5,5.7,0C95,56.5,95,58.9,93.6,60.5z
	 M89,59.5c1,0.9,2.5,0.9,3.4,0c0.9-1,0.9-2.5,0-3.6c-1-0.9-2.5-0.9-3.4,0C88.1,56.9,88.1,58.5,89,59.5z"/>
<path class="st0" d="M97.6,53.3v0.6h2v1.3h-2v6.3h-1.6v-6.3h-1v-1.3h1v-0.6c0-0.7,0.2-1.4,0.7-1.9c0.5-0.5,1.1-0.7,1.7-0.7
	c0.7,0,1.4,0.3,1.8,0.8l-0.7,1.1c-0.2-0.3-0.6-0.5-1-0.5c-0.3,0-0.6,0.1-0.8,0.3C97.7,52.7,97.6,53,97.6,53.3z"/>
<path class="st0" d="M107.5,58.4h-5.9c0,0.5,0.3,1,0.8,1.3c0.5,0.3,1,0.5,1.6,0.5c0.8,0.1,1.6-0.3,2.2-0.9l0.9,1
	c-0.8,0.8-2,1.3-3.2,1.3c-1,0-2-0.4-2.7-1c-0.7-0.8-1.1-1.8-1.1-2.9c-0.1-1.1,0.4-2.1,1.1-2.8c1.5-1.4,3.8-1.4,5.3-0.1
	c0.7,0.6,1.1,1.6,1.1,2.6L107.5,58.4z M101.6,57.2h4.3c0-0.6-0.2-1.1-0.6-1.5c-0.4-0.3-0.9-0.5-1.5-0.5c-0.6,0-1.1,0.2-1.6,0.5
	C101.8,56,101.5,56.6,101.6,57.2z"/>
<path class="st0" d="M113.9,59.2c0,0.7-0.3,1.3-0.8,1.7c-0.6,0.4-1.3,0.7-2,0.6c-0.6,0-1.2-0.1-1.7-0.3c-0.6-0.2-1.1-0.5-1.6-0.8
	l0.8-1.2c0.7,0.6,1.6,1,2.6,1c0.3,0,0.6-0.1,0.8-0.2c0.2-0.2,0.3-0.4,0.3-0.6c0-0.4-0.5-0.7-1.5-1l-0.2-0.1
	c-1.6-0.4-2.4-1.1-2.4-2.1c0-0.7,0.3-1.3,0.8-1.7c0.6-0.4,1.4-0.7,2.1-0.6c0.9,0,1.7,0.3,2.5,0.8l-0.6,1.2c-0.6-0.4-1.3-0.6-2-0.6
	c-0.3,0-0.6,0.1-0.9,0.2c-0.2,0.1-0.4,0.4-0.3,0.6c0,0.2,0.1,0.5,0.4,0.5c0.2,0.1,0.5,0.2,0.7,0.2c0.3,0.1,0.6,0.2,0.8,0.2
	s0.5,0.2,0.7,0.3c0.2,0.1,0.5,0.2,0.7,0.4C113.6,58,113.9,58.6,113.9,59.2z"/>
<path class="st0" d="M120.4,59.2c0,0.7-0.3,1.3-0.8,1.7c-0.6,0.4-1.3,0.7-2,0.6c-0.6,0-1.2-0.1-1.7-0.3c-0.6-0.2-1.1-0.5-1.6-0.8
	l0.8-1.2c0.7,0.6,1.6,1,2.6,1c0.3,0,0.6-0.1,0.8-0.3c0.2-0.1,0.3-0.4,0.3-0.6c0-0.4-0.5-0.7-1.5-1l-0.2-0.1
	c-1.6-0.4-2.4-1.1-2.4-2.1c0-0.7,0.3-1.3,0.8-1.7c0.6-0.4,1.4-0.7,2.1-0.6c0.9,0,1.7,0.3,2.5,0.8l-0.6,1.2c-0.6-0.4-1.3-0.6-2-0.6
	c-0.3,0-0.6,0.1-0.9,0.2c-0.2,0.1-0.4,0.4-0.3,0.6c0,0.2,0.1,0.5,0.4,0.5c0.2,0.1,0.5,0.2,0.7,0.2c0.3,0.1,0.6,0.2,0.8,0.2
	s0.5,0.2,0.7,0.3c0.3,0.1,0.5,0.2,0.7,0.4C120.1,58,120.4,58.6,120.4,59.2z"/>
<path class="st0" d="M121.6,52.4c-0.4-0.4-0.4-1,0-1.4s1-0.4,1.4,0c0.4,0.4,0.4,1,0,1.4c0,0,0,0,0,0C122.6,52.8,122,52.8,121.6,52.4
	C121.6,52.4,121.6,52.4,121.6,52.4L121.6,52.4z M123.1,61.5h-1.6v-7.6h1.6V61.5z"/>
<path class="st0" d="M131,60.5c-1.6,1.5-4.1,1.5-5.7,0c-1.5-1.5-1.5-4,0-5.5c1.6-1.5,4.1-1.5,5.7,0C132.5,56.5,132.5,58.9,131,60.5z
	 M126.4,59.5c0.4,0.5,1.1,0.7,1.7,0.7c0.6,0,1.3-0.2,1.7-0.7c0.9-1,0.9-2.5,0-3.6c-0.5-0.5-1.1-0.7-1.7-0.7c-0.6,0-1.3,0.2-1.7,0.7
	C125.5,56.9,125.5,58.5,126.4,59.5z"/>
<path class="st0" d="M134.8,57.4v4.1h-1.6v-7.6h1.6v1.4c0.5-0.9,1.5-1.5,2.5-1.5c0.8,0,1.5,0.3,2.1,0.8c0.6,0.6,0.9,1.4,0.8,2.3v4.6
	h-1.6v-4.2c0-1.4-0.6-2.1-1.7-2.1c-0.5,0-1,0.2-1.4,0.5C135,56.2,134.8,56.8,134.8,57.4z"/>
<path class="st0" d="M147.8,61.5h-1.4v-1c-0.6,0.7-1.6,1.2-2.5,1.1c-0.7,0-1.4-0.2-2-0.7c-0.5-0.4-0.8-1.1-0.8-1.8
	c0-0.7,0.3-1.3,0.8-1.7c0.7-0.4,1.4-0.6,2.2-0.5h2.1v-0.3c0-1-0.6-1.5-1.7-1.5c-0.8,0-1.6,0.3-2.2,0.8l-0.7-1c0.9-0.7,2-1.1,3.1-1.1
	c0.8,0,1.6,0.2,2.2,0.7c0.6,0.5,0.9,1.3,0.9,2.1L147.8,61.5z M146.3,58.7V58h-1.8c-1.1,0-1.7,0.4-1.7,1.1c0,0.3,0.2,0.6,0.4,0.8
	c0.4,0.2,0.8,0.3,1.2,0.3c0.5,0,0.9-0.1,1.3-0.4C146,59.5,146.2,59.1,146.3,58.7z"/>
<path class="st0" d="M150.9,61.5h-1.6V50.9h1.6V61.5z"/>
<path class="st0" d="M162.9,51.5v1.6h-5.3v2.6h4.8v1.5h-4.8v2.7h5.5v1.6h-7.1v-9.9H162.9z"/>
<path class="st0" d="M164.9,60.5c-0.7-0.8-1.1-1.8-1.1-2.8c-0.1-1,0.3-2.1,1.1-2.8c0.7-0.7,1.6-1.1,2.6-1.1c1,0,1.9,0.5,2.5,1.3
	v-4.2h1.6v10.6H170v-1.1c-0.6,0.8-1.6,1.3-2.6,1.3C166.5,61.6,165.5,61.2,164.9,60.5z M165.4,57.8c0,0.7,0.2,1.3,0.7,1.8
	c0.4,0.4,1,0.7,1.6,0.7c0.6,0,1.2-0.2,1.6-0.7c0.4-0.5,0.7-1.1,0.7-1.8c0-0.7-0.2-1.3-0.7-1.8c-0.4-0.5-1-0.7-1.6-0.7
	c-0.6,0-1.2,0.3-1.6,0.7C165.6,56.4,165.4,57.1,165.4,57.8z"/>
<path class="st0" d="M178.4,58v-4.1h1.6v7.6h-1.6v-1.4c-0.2,0.5-0.6,0.8-1.1,1.1c-0.4,0.3-0.9,0.4-1.4,0.4c-0.8,0-1.5-0.2-2.1-0.8
	c-0.6-0.6-0.9-1.4-0.8-2.3v-4.6h1.6v4.2c0,1.4,0.6,2.1,1.7,2.1c0.5,0,1-0.2,1.4-0.5C178.2,59.2,178.5,58.6,178.4,58z"/>
<path class="st0" d="M185,61.6c-1,0-2-0.4-2.7-1.1c-1.5-1.6-1.5-4.1,0.1-5.6c0.8-0.7,1.8-1.1,2.9-1.1c1.1,0,2.1,0.4,2.9,1.2
	l-0.9,1.2c-0.5-0.5-1.2-0.8-2-0.9c-0.6,0-1.3,0.2-1.7,0.7c-0.5,0.4-0.7,1.1-0.7,1.7c0,0.7,0.2,1.3,0.7,1.8c0.5,0.5,1.1,0.7,1.8,0.7
	c0.8,0,1.5-0.4,2-1l0.9,1C187.3,61.1,186.2,61.6,185,61.6z"/>
<path class="st0" d="M195.2,61.5h-1.4v-1c-0.6,0.7-1.6,1.2-2.5,1.1c-0.7,0-1.4-0.2-2-0.7c-0.5-0.4-0.8-1.1-0.8-1.8
	c0-0.7,0.3-1.3,0.8-1.7c0.7-0.4,1.5-0.6,2.2-0.5h2.1v-0.3c0-1-0.6-1.5-1.7-1.5c-0.8,0-1.6,0.3-2.2,0.8l-0.7-1c0.9-0.7,2-1.1,3.1-1.1
	c0.8,0,1.6,0.2,2.2,0.7c0.6,0.5,0.9,1.3,0.9,2.1L195.2,61.5z M193.6,58.7V58h-1.8c-1.1,0-1.7,0.4-1.7,1.1c0,0.3,0.1,0.7,0.4,0.8
	c0.4,0.2,0.8,0.3,1.2,0.3c0.5,0,0.9-0.1,1.3-0.4C193.4,59.5,193.6,59.1,193.6,58.7L193.6,58.7z"/>
<path class="st0" d="M198.6,55.2V59c0,0.3,0.1,0.6,0.3,0.9c0.2,0.2,0.5,0.3,0.8,0.3c0.4,0,0.8-0.2,1-0.5l0.7,1.1
	c-0.5,0.5-1.2,0.7-1.9,0.8c-0.6,0-1.3-0.2-1.7-0.7c-0.5-0.5-0.7-1.2-0.7-1.9v-3.8h-1v-1.3h1v-2.4h1.6v2.4h2v1.3H198.6z"/>
<path class="st0" d="M201.9,52.4c-0.4-0.4-0.4-1,0-1.4c0,0,0,0,0,0c0.2-0.2,0.4-0.3,0.7-0.3c0.6,0,1,0.4,1,1s-0.4,1-1,1
	C202.4,52.7,202.1,52.6,201.9,52.4z M203.4,61.5h-1.6v-7.6h1.6V61.5z"/>
<path class="st0" d="M211.3,60.5c-1.6,1.5-4.1,1.5-5.7,0c-1.5-1.5-1.5-4,0-5.5c1.6-1.5,4.1-1.5,5.7,0
	C212.8,56.5,212.8,58.9,211.3,60.5z M206.8,59.5c0.5,0.5,1.1,0.7,1.7,0.7c0.6,0,1.3-0.2,1.7-0.7c0.9-1,0.9-2.5,0-3.6
	c-0.4-0.5-1.1-0.7-1.7-0.7c-0.6,0-1.3,0.2-1.7,0.7C205.9,56.9,205.9,58.5,206.8,59.5z"/>
<path class="st0" d="M215.2,57.4v4.1h-1.6v-7.6h1.6v1.4c0.2-0.5,0.6-0.8,1.1-1.1c0.4-0.3,0.9-0.4,1.4-0.4c0.8,0,1.5,0.3,2.1,0.8
	c0.6,0.6,0.9,1.4,0.8,2.3v4.6h-1.6v-4.2c0-1.4-0.6-2.1-1.7-2.1c-0.5,0-1,0.2-1.4,0.5C215.3,56.2,215.1,56.8,215.2,57.4z"/>
</svg>
