<svg id="Layer_1" data-name="Layer 1" xmlns="http://www.w3.org/2000/svg" viewBox="0 0 478.86 245.25"><defs><style>.cls-1,.cls-3,.cls-4{fill:#231f20;}.cls-1,.cls-4{stroke:#231f20;}.cls-1,.cls-2,.cls-4,.cls-5{stroke-miterlimit:10;}.cls-2{fill:#ec2127;}.cls-2,.cls-5{stroke:#fff;}.cls-2,.cls-4,.cls-5{stroke-width:2px;}.cls-5{fill:#ed1c24;}</style></defs><polygon class="cls-1" points="0.66 120.63 36.44 31.17 66.53 75.9 97.44 24.66 137.28 109.24 140.54 24.66 173.07 24.66 173.07 41.74 230.54 64.52 219.15 24.66 251.69 20.06 266.86 94.33 272.13 28.73 321.62 70.34 321.62 26.56 353.61 31.98 350.9 22.23 385.6 15.18 405.66 107.35 407.83 17.35 474.51 20.06 474.51 45 440.36 44.45 439.82 55.3 465.84 55.84 463.67 79.69 439.27 80.24 439.27 90.54 476.68 91.62 476.68 120.63 406.2 116.56 406.07 112.7 375.57 120.63 355.24 37.07 349.75 124.49 298.31 85.66 297.7 121.65 264.76 119.61 264.76 108.43 211.7 86.47 220.24 121.44 188.32 127.54 173.88 47.44 171.24 127.54 138.91 127.54 138.71 118.6 102.11 133.24 89.91 96.44 71.41 127.34 48.84 97.45 36.65 133.24 0.66 120.63"/><polygon class="cls-2" points="1.84 106.63 37.62 17.17 67.71 61.9 98.61 10.66 138.46 95.24 141.72 10.66 174.25 10.66 174.25 27.74 231.72 50.51 220.33 10.66 252.87 6.06 268.04 80.33 273.31 14.73 322.8 56.34 322.8 12.56 354.79 17.98 352.08 8.22 386.78 1.18 406.84 93.34 409 3.35 475.69 6.06 475.69 31 441.54 30.45 440.99 41.3 467.02 41.84 464.85 65.69 440.45 66.24 440.45 76.54 477.86 77.62 477.86 106.63 407.38 102.56 407.24 98.7 376.75 106.63 356.42 23.07 350.93 110.49 299.49 71.66 298.88 107.64 265.94 105.61 265.94 94.43 212.88 72.47 221.41 107.44 189.49 113.54 175.06 33.44 172.42 113.54 140.09 113.54 139.89 104.59 103.29 119.23 91.09 82.43 72.59 113.34 50.02 83.45 37.82 119.23 1.84 106.63"/><path class="cls-3" d="M203.22,435.36" transform="translate(-58.57 -297.33)"/><path class="cls-4" d="M446.79,471.07l-3.66-17.48L417.92,456s6.62,38.34,1.22,48c0,0-6.1,21.55-22.77,10.16s3.25-59.36,3.25-59.36l-22.36-5.63c-8.95,7-16.27,41-16.27,41,0-6.91-13.82-49.61-56.11-39.44s-35.38,49.2-35.38,49.2,6.51,33.34,38.23,37S358,519.23,361,498.72c0,0,1.63,45.95,49.61,42.7S446.79,471.07,446.79,471.07ZM332.46,497.76a17.46,17.46,0,1,1,.39-3.65A17.48,17.48,0,0,1,332.46,497.76Z" transform="translate(-58.57 -297.33)"/><polygon class="cls-4" points="144.25 149.5 171.9 175.53 194.26 144.22 219.88 167.53 188.97 197.89 188.97 235.3 159.29 235.3 158.88 197.48 126.35 169.83 144.25 149.5"/><polygon class="cls-5" points="144.65 138.03 172.3 164.05 194.67 132.74 220.28 156.05 189.38 186.42 189.38 223.83 159.7 223.83 159.29 186.01 126.76 158.36 144.65 138.03"/><path class="cls-5" d="M446.79,460.7l-3.66-17.48-25.21,2.44s6.62,38.35,1.22,48c0,0-6.1,21.55-22.77,10.17s3.25-59.37,3.25-59.37l-22.36-5.63c-8.95,7-16.27,41-16.27,41,0-6.92-13.82-49.61-56.11-39.45s-35.38,49.21-35.38,49.21,6.51,33.34,38.23,37S358,508.87,361,488.36c0,0,1.63,45.94,49.61,42.69S446.79,460.7,446.79,460.7ZM332.46,487.4a17.47,17.47,0,1,1,.39-3.65A17.48,17.48,0,0,1,332.46,487.4Z" transform="translate(-58.57 -297.33)"/><path class="cls-4" d="M332.85,483.75a17.59,17.59,0,0,1-.39,3.65,17.48,17.48,0,0,0-34.2,0,17.49,17.49,0,1,1,34.59-3.65Z" transform="translate(-58.57 -297.33)"/></svg>