<svg xmlns="http://www.w3.org/2000/svg" viewBox="0 0 64 64.04"><defs><style>.cls-1{fill:#fff;}</style></defs><g id="Layer_2" data-name="Layer 2"><g id="Layer_1-2" data-name="Layer 1"><path class="cls-1" d="M64,32A32,32,0,1,1,32,0,32,32,0,0,1,64,32ZM13.94,8.59l-.09.06C5.72,15.78,2.2,24.72,4,35.4A27.08,27.08,0,0,0,19.76,56.24c8.7,4.16,17.46,3.94,25.79-1.09A27.1,27.1,0,0,0,57.8,26.91a15.6,15.6,0,0,0-3.23-7.31,6.94,6.94,0,0,0-5.1-2.77,8,8,0,0,0-5.57,2.1,18.6,18.6,0,0,0-3.77,4.52,83.48,83.48,0,0,0-5.54,11.12,79.12,79.12,0,0,1-5,10.12,13.34,13.34,0,0,1-3,3.52,4.67,4.67,0,0,1-3.19,1.14A4.74,4.74,0,0,1,20.3,47.8a28.74,28.74,0,0,1-3.47-4.1,41.48,41.48,0,0,1-6.72-21,22.26,22.26,0,0,1,1.7-10.16C12.43,11.15,13.25,9.85,13.94,8.59ZM52.3,10.68c-.16-.18-.25-.29-.35-.39A27.48,27.48,0,0,0,43.4,4.47a26.49,26.49,0,0,0-17-1.71A13.63,13.63,0,0,0,17,9.69a19.23,19.23,0,0,0-2.11,9.16A39.28,39.28,0,0,0,19.72,37.6,18,18,0,0,0,22,40.76c.63.73,1.29.69,2,0a5,5,0,0,0,.88-1,23,23,0,0,0,1.45-2.49c1.84-3.88,3.6-7.81,5.48-11.67a41.79,41.79,0,0,1,6.93-10.52A15.88,15.88,0,0,1,44.64,11,12.14,12.14,0,0,1,52.3,10.68Z"/><ellipse class="cls-1" cx="32" cy="7.61" rx="7.78" ry="2.59"/></g></g></svg>